<svg width="290" height="65" viewBox="0 0 290 65" fill="none" xmlns="http://www.w3.org/2000/svg">
<path fill-rule="evenodd" clip-rule="evenodd" d="M32.5176 0.123657C50.5148 0.123657 65.0353 14.6337 65.0353 32.4661C65.0353 50.2985 50.5148 64.8763 32.5176 64.8763C14.5205 64.8763 0 50.3663 0 32.4661C0 14.5659 14.5886 0.123657 32.5176 0.123657ZM32.5176 6.29381C47.1063 6.29381 58.8999 18.0239 58.8999 32.5339C58.8999 42.162 53.6507 50.6375 45.811 55.1804C47.4471 49.4848 48.1288 43.6537 47.8561 36.9411C49.5604 37.4158 50.5148 37.687 52.2191 38.2294C50.2421 33.2797 48.1288 28.8047 45.3338 24.2618C42.8796 28.9403 39.5393 33.3475 36.1989 36.8055L41.6526 36.4665C36.9488 44.8064 30.3362 48.8746 21.9511 50.0273C20.0423 40.6025 21.4739 25.2111 32.1768 18.0239L33.2675 23.177C35.3808 19.8546 39.4711 15.4473 42.5388 12.3962C37.6986 10.4976 32.1086 9.88741 26.6549 10.9045C27.5411 11.6503 28.6319 12.5996 29.5181 13.3454C17.4518 18.4307 10.8392 26.7706 6.47626 36.4665C6.27174 35.1782 6.20357 33.8222 6.20357 32.5339C6.20357 18.0239 17.9972 6.29381 32.5176 6.29381Z" fill="#9D9D9D"/>
<path d="M94.0762 48.1965C94.0762 48.6711 94.0762 49.1457 94.0762 49.6204C92.781 49.6204 91.5539 49.6204 90.2586 49.6204C90.2586 50.5018 90.2586 51.4511 90.2586 52.3325H94.4853C94.4853 52.8071 94.4853 53.2818 94.4853 53.7564H88.6225V44.3317H94.4171C94.4171 44.8063 94.4171 45.2809 94.4171 45.7556C92.9855 45.7556 91.6221 45.7556 90.1905 45.7556V48.1287C91.4857 48.1965 92.781 48.1965 94.0762 48.1965ZM82.0099 53.6886H76.2154V44.3317C76.7608 44.3317 77.3061 44.3317 77.8515 44.3317V52.2647H82.0781C82.0099 52.7393 82.0099 53.214 82.0099 53.6886ZM113.028 44.3995L110.846 46.9082C110.574 46.7726 110.301 46.7048 110.028 46.5692L110.846 44.3995C111.528 44.3995 112.278 44.3995 113.028 44.3995ZM116.914 46.0946C116.709 46.2302 116.573 46.5014 116.573 46.976C116.573 47.7897 116.845 48.0609 117.595 48.1965L119.095 48.3321C120.595 48.4677 121.481 49.2813 121.481 50.9086V51.4511C121.481 51.8579 121.413 52.2647 121.277 52.6037C121.14 52.9428 120.936 53.214 120.663 53.4174C120.322 53.6886 119.913 53.7564 119.504 53.8242C119.095 53.892 118.618 53.892 118.209 53.892H115.141C115.141 53.3496 115.141 52.8072 115.141 52.2647H118.482C118.618 52.2647 118.754 52.2647 118.891 52.2647C119.572 52.2647 119.981 52.1291 119.913 51.1121C119.913 50.6374 119.777 50.3662 119.64 50.2306C119.436 50.095 119.163 50.0272 118.822 49.9594L117.254 49.8238C116.709 49.756 116.096 49.6204 115.686 49.2135C115.277 48.8067 115.005 48.1965 115.005 47.1794C115.005 47.0438 115.005 46.9082 115.005 46.7048C115.073 45.6877 115.414 45.0775 116.027 44.7385C116.641 44.3995 117.459 44.3317 118.277 44.3317H121.072C121.072 44.8741 121.072 45.4165 121.072 45.959H118.072C117.527 45.959 117.118 45.959 116.914 46.0946ZM135.933 53.6886V44.3317H140.024C140.364 44.3317 140.842 44.4673 141.251 44.7385C141.66 45.0097 141.932 45.4843 141.932 46.2302V47.3828C141.932 48.1965 141.523 48.6033 141.251 48.8745C141.523 49.0779 141.932 49.5526 141.932 50.2984V51.7901C141.932 52.8071 141.046 53.6886 140.024 53.6886H135.933ZM140.16 49.756C140.092 49.6882 139.887 49.5526 139.751 49.5526H137.501V52.1969H139.751C139.887 52.1969 140.024 52.1291 140.16 51.9935C140.228 51.9257 140.296 51.7901 140.296 51.5867V50.1628C140.364 50.095 140.296 49.8916 140.16 49.756ZM140.228 45.959C140.092 45.8234 139.955 45.7556 139.751 45.7556H137.501V48.1287H139.819C139.955 48.1287 140.092 48.0609 140.228 47.9253C140.364 47.7897 140.433 47.5863 140.433 47.4506V46.3658C140.364 46.298 140.296 46.0946 140.228 45.959ZM199.196 48.1965H203.014C203.014 48.6711 203.014 49.1457 203.014 49.6204H199.196V52.3325H203.423C203.423 52.8071 203.423 53.2818 203.423 53.7564H197.628V44.3317C199.537 44.3317 201.514 44.3317 203.423 44.3317C203.423 44.8063 203.423 45.2809 203.423 45.7556H199.196V48.1965ZM190.266 53.6886H185.017V44.3317C185.562 44.3317 186.107 44.3317 186.653 44.3317V52.2647H190.266C190.266 52.7393 190.266 53.214 190.266 53.6886ZM178.745 45.8234H176.359V53.6886C175.813 53.6886 175.268 53.6886 174.723 53.6886V45.8234H172.337C172.337 45.3487 172.337 44.8741 172.337 44.3995H178.745C178.745 44.8741 178.745 45.3487 178.745 45.8234ZM165.997 45.8234H163.611V53.6886C163.065 53.6886 162.52 53.6886 161.975 53.6886V45.8234H159.589C159.589 45.3487 159.589 44.8741 159.589 44.3995H165.997C165.997 44.8741 165.997 45.3487 165.997 45.8234ZM149.568 51.7223L149.09 53.7564H147.386L149.977 44.3995C150.658 44.3995 151.34 44.3995 152.09 44.3995L154.68 53.7564C154.135 53.7564 153.521 53.7564 152.976 53.7564L152.431 51.7223H149.568ZM149.908 50.2984H151.954L150.931 46.2302L149.908 50.2984ZM106.62 45.8234C105.802 45.8234 105.052 45.8234 104.234 45.8234V53.6886C103.688 53.6886 103.143 53.6886 102.598 53.6886V45.8234C101.78 45.8234 101.03 45.8234 100.212 45.8234C100.212 45.3487 100.212 44.8741 100.212 44.3995H106.62C106.62 44.8741 106.62 45.3487 106.62 45.8234Z" fill="#9D9D9D"/>
<path d="M82.9643 18.8375L85.2821 31.9915H90.4631L96.1895 11.3113H91.1448L88.0089 24.7364L85.8275 11.3113H83.5778H82.3507H80.1011L77.9196 24.7364L74.7837 11.3113H69.7391L75.4654 31.9915H80.6465L82.9643 18.8375Z" fill="#9D9D9D"/>
<path d="M99.3935 31.9915L100.348 27.7198H105.597L106.551 31.9915H111.255L105.529 11.3113H100.348L94.6896 31.9915H99.3935ZM103.007 16.3966L104.779 24.194H101.234L103.007 16.3966Z" fill="#9D9D9D"/>
<path d="M118.141 24.2618H121.004L123.799 31.9914H128.98L125.299 23.3803C126.867 22.8379 127.889 21.4818 127.889 19.8545V15.2439C127.889 13.3454 126.594 11.9215 124.89 11.5147C123.799 11.2434 122.708 11.3112 121.549 11.3112H113.71V31.9914H118.141V24.2618ZM118.141 15.3117H121.89C122.708 15.3117 123.458 15.7185 123.458 16.6677V18.7019C123.458 19.7189 122.776 20.1935 121.89 20.1935H118.141V15.3117Z" fill="#9D9D9D"/>
<path d="M141.182 32.1948C143.364 32.1948 144.659 31.5846 145.75 30.771V19.7867H138.728V23.7194H141.319C141.319 25.0754 141.319 26.2281 141.319 27.652C140.91 27.7198 140.433 27.7876 139.955 27.7876H138.183C135.661 27.7876 135.047 26.0247 135.047 24.1262V18.9731C135.047 17.0068 135.933 15.5829 138.319 15.5829H145.409V11.1757H138.047C133.956 11.1757 131.025 13.6166 130.616 17.8204C130.616 18.1595 130.548 18.4985 130.548 18.8375V24.8042C130.548 29.1437 133.547 32.1948 137.638 32.1948H141.182Z" fill="#9D9D9D"/>
<path d="M151.885 31.9915L152.84 27.7198H158.089L159.043 31.9915H163.747L158.021 11.3113H152.84L147.181 31.9915H151.885ZM155.43 16.3966L157.203 24.194H153.658L155.43 16.3966Z" fill="#9D9D9D"/>
<path d="M180.994 19.3121V31.9915H185.289V11.3113H179.699L175.541 26.7028L171.45 11.3113H165.86V31.9915H170.087V19.3121L173.291 31.9915H177.79L180.994 19.3121Z" fill="#9D9D9D"/>
<path d="M193.402 31.9915V11.3113H188.97V31.9915H193.402Z" fill="#9D9D9D"/>
<path d="M212.421 31.9915V11.3113H208.126V23.6516L201.446 11.3113H197.083V31.9915H201.309V19.6512L208.058 31.9915H212.421Z" fill="#9D9D9D"/>
<path d="M256.664 31.9915V11.3113H252.369V23.6516L245.689 11.3113H241.326V31.9915H245.552V19.6512L252.301 31.9915H256.664Z" fill="#9D9D9D"/>
<path d="M272.48 19.3121H264.504V15.3117H273.298V11.3113H260.073V31.9915H273.298V27.991H264.504V23.2448H272.48V19.3121Z" fill="#9D9D9D"/>
<path d="M290 15.3117V11.3113H275.548V15.3117H280.592V31.9915H285.024V15.3117H290Z" fill="#9D9D9D"/>
<path d="M225.646 32.1948C227.828 32.1948 229.123 31.5846 230.214 30.771V19.7867H223.192V23.7194H225.783C225.783 25.0754 225.783 26.2281 225.783 27.652C225.374 27.7198 224.897 27.7876 224.419 27.7876H222.647C220.125 27.7876 219.511 26.0247 219.511 24.1262V18.9731C219.511 17.0068 220.397 15.5829 222.783 15.5829H229.873V11.1757H222.511C218.42 11.1757 215.489 13.6166 215.08 17.8204C215.08 18.1595 215.012 18.4985 215.012 18.8375V24.8042C215.012 29.1437 218.011 32.1948 222.102 32.1948H225.646Z" fill="#9D9D9D"/>
<path fill-rule="evenodd" clip-rule="evenodd" d="M233.759 28.1267H238.054V32.3305H233.759V28.1267Z" fill="#9D9D9D"/>
</svg>
