<svg width="1283" height="170" viewBox="0 0 1283 170" fill="none" xmlns="http://www.w3.org/2000/svg">
<path d="M799.719 31.5928C806.966 31.5928 812.842 25.6992 812.842 18.4291C812.842 11.159 806.966 5.26538 799.719 5.26538C792.472 5.26538 786.597 11.159 786.597 18.4291C786.597 25.6992 792.472 31.5928 799.719 31.5928Z" fill="white"/>
<path fill-rule="evenodd" clip-rule="evenodd" d="M750.976 136.903C780.171 136.903 803.838 113.328 803.838 84.2476C803.838 55.1672 780.171 31.5928 750.976 31.5928C730.727 31.5928 713.137 42.9333 704.259 59.5859L750.574 85.4883C750.915 85.6791 750.915 86.1702 750.574 86.3611L705.707 111.453C714.966 126.706 731.776 136.903 750.976 136.903ZM682.873 47.6257L668.698 39.698C668.365 39.5116 667.954 39.7525 667.954 40.1344V85.9247V131.715C667.954 132.097 668.365 132.338 668.698 132.151L683.085 124.105L683.114 134.686H658.519L658.249 82.8896L633.924 125.053H622.032L597.843 84.2857V134.686H573.113V36.9567H595.14L628.384 93.3606L660.817 36.9567H682.844L682.873 47.6257ZM29.6083 134.686H56.3653V58.8761H85.2844V36.9567H0.553955V58.8761H29.6083V134.686ZM153.767 134.686H182.416L162.01 103.971C173.767 98.1075 180.524 87.4968 180.524 73.1167C180.524 50.7785 164.307 36.9567 138.496 36.9567H95.2527V134.686H122.01V108.718H136.604L153.767 134.686ZM153.496 73.1167C153.496 82.0519 147.956 87.3572 136.875 87.3572H122.01V58.7365H136.875C147.956 58.7365 153.496 64.0418 153.496 73.1167ZM266.097 134.686H293.935L252.043 36.9567H225.691L183.934 134.686H211.231L218.664 115.699H258.664L266.097 134.686ZM226.502 95.3152L238.664 64.0418L250.826 95.3152H226.502ZM375.711 58.3176V36.9567H301.521V134.686H328.278V101.179H370.035V79.8181H328.278V58.3176H375.711ZM388.224 134.686H414.981V36.9567H388.224V134.686ZM481.18 136.641C498.612 136.641 512.667 130.079 521.856 118.212L504.829 102.296C498.883 109.695 491.585 113.744 482.531 113.744C466.991 113.744 456.18 102.575 456.18 85.8215C456.18 69.0679 466.991 57.8988 482.531 57.8988C491.585 57.8988 498.883 61.9476 504.829 69.3471L521.856 53.4311C512.667 41.564 498.612 35.0022 481.18 35.0022C451.18 35.0022 429.152 56.0838 429.152 85.8215C429.152 115.559 451.18 136.641 481.18 136.641ZM883.813 36.9567V89.0326L842.056 36.9567H820.029V134.686H846.245V82.6104L888.002 134.686H910.029V36.9567H883.813ZM962.144 136.641C990.253 136.641 1004.04 122.121 1004.04 105.088C1004.04 83.1779 984.187 78.7277 968.635 75.2411C958.62 72.9958 950.387 71.1501 950.387 65.2983C950.387 60.4118 954.441 56.5026 965.658 56.5026C973.901 56.5026 982.82 59.0157 991.874 64.0418L1000.12 43.5186C990.793 37.934 978.09 35.0022 965.793 35.0022C937.685 35.0022 923.901 49.2427 923.901 66.6944C923.901 88.649 943.575 93.1883 959.125 96.776C969.285 99.1202 977.685 101.058 977.685 107.182C977.685 111.929 973.361 115.14 962.279 115.14C951.333 115.14 939.441 111.231 931.063 105.507L922.279 125.891C931.198 132.313 946.604 136.641 962.144 136.641ZM1035.21 134.686H1061.97V58.8761H1090.89V36.9567H1006.16V58.8761H1035.21V134.686ZM1127.34 113.325V95.4548H1169.37V74.792H1127.34V58.3176H1175.05V36.9567H1100.86V134.686H1176.8V113.325H1127.34ZM1250.17 134.686H1278.82L1258.41 103.971C1270.17 98.1075 1276.92 87.4968 1276.92 73.1167C1276.92 50.7785 1260.71 36.9567 1234.9 36.9567H1191.65V134.686H1218.41V108.718H1233.01L1250.17 134.686ZM1249.9 73.1167C1249.9 82.0519 1244.36 87.3572 1233.28 87.3572H1218.41V58.7365H1233.28C1244.36 58.7365 1249.9 64.0418 1249.9 73.1167Z" fill="white"/>
</svg>
